<?xml version="1.0" encoding="UTF-8" standalone="no"?>
<!-- Created with Inkscape (http://www.inkscape.org/) -->

<svg
   xmlns:dc="http://purl.org/dc/elements/1.1/"
   xmlns:cc="http://creativecommons.org/ns#"
   xmlns:rdf="http://www.w3.org/1999/02/22-rdf-syntax-ns#"
   xmlns:svg="http://www.w3.org/2000/svg"
   xmlns="http://www.w3.org/2000/svg"
   xmlns:xlink="http://www.w3.org/1999/xlink"
   xmlns:sodipodi="http://sodipodi.sourceforge.net/DTD/sodipodi-0.dtd"
   xmlns:inkscape="http://www.inkscape.org/namespaces/inkscape"
   width="210mm"
   height="297mm"
   viewBox="0 0 210 297"
   version="1.1"
   id="svg8"
   sodipodi:docname="cantor-schroder-bernstein-traced.svg"
   inkscape:version="0.92.4 (5da689c313, 2019-01-14)">
  <defs
     id="defs2">
    <linearGradient
       inkscape:collect="always"
       id="linearGradient1288">
      <stop
         style="stop-color:#fdc400;stop-opacity:0.49537036"
         offset="0"
         id="stop1284" />
      <stop
         style="stop-color:#2cff09;stop-opacity:0.5462963"
         offset="1"
         id="stop1286" />
    </linearGradient>
    <linearGradient
       inkscape:collect="always"
       id="linearGradient1280">
      <stop
         style="stop-color:#1dff00;stop-opacity:0.31018519"
         offset="0"
         id="stop1276" />
      <stop
         style="stop-color:#c107ff;stop-opacity:0.5324074"
         offset="1"
         id="stop1278" />
    </linearGradient>
    <linearGradient
       inkscape:collect="always"
       id="linearGradient1197">
      <stop
         style="stop-color:#ff4040;stop-opacity:0.31481481"
         offset="0"
         id="stop1193" />
      <stop
         style="stop-color:#f8ff07;stop-opacity:0.75925928"
         offset="1"
         id="stop1195" />
    </linearGradient>
    <linearGradient
       inkscape:collect="always"
       xlink:href="#linearGradient1280"
       id="linearGradient1282"
       x1="400.00003"
       y1="242.51967"
       x2="400"
       y2="882.5199"
       gradientUnits="userSpaceOnUse"
       gradientTransform="matrix(0.26458333,0,0,0.26458333,0,15.875004)" />
    <linearGradient
       inkscape:collect="always"
       xlink:href="#linearGradient1288"
       id="linearGradient1290"
       x1="400.00003"
       y1="242.5197"
       x2="400"
       y2="882.5199"
       gradientUnits="userSpaceOnUse"
       gradientTransform="matrix(0.26458333,0,0,0.26458333,0,15.875004)" />
    <linearGradient
       inkscape:collect="always"
       xlink:href="#linearGradient1197"
       id="linearGradient3337"
       gradientUnits="userSpaceOnUse"
       gradientTransform="matrix(0.26458333,0,0,0.26458333,0,15.875004)"
       x1="400.00003"
       y1="242.51967"
       x2="400"
       y2="882.5199" />
  </defs>
  <sodipodi:namedview
     id="base"
     pagecolor="#ffffff"
     bordercolor="#666666"
     borderopacity="1.0"
     inkscape:pageopacity="0.0"
     inkscape:pageshadow="2"
     inkscape:zoom="0.7"
     inkscape:cx="394.17221"
     inkscape:cy="550.18276"
     inkscape:document-units="mm"
     inkscape:current-layer="text1073"
     showgrid="false"
     inkscape:snap-bbox="true"
     inkscape:snap-bbox-midpoints="true"
     inkscape:snap-nodes="true"
     inkscape:snap-smooth-nodes="true"
     inkscape:snap-grids="false">
    <inkscape:grid
       type="xygrid"
       id="grid10" />
  </sodipodi:namedview>
  <metadata
     id="metadata5">
    <rdf:RDF>
      <cc:Work
         rdf:about="">
        <dc:format>image/svg+xml</dc:format>
        <dc:type
           rdf:resource="http://purl.org/dc/dcmitype/StillImage" />
        <dc:title></dc:title>
      </cc:Work>
    </rdf:RDF>
  </metadata>
  <g
     inkscape:label="Layer 1"
     inkscape:groupmode="layer"
     id="layer1">
    <g
       id="g3333"
       transform="translate(0,5.8208336)">
      <path
         style="opacity:1;fill:#ff5555;fill-opacity:1;stroke:#000000;stroke-width:0.30000001;stroke-linecap:square;stroke-linejoin:miter;stroke-miterlimit:4;stroke-dasharray:none;stroke-dashoffset:0;stroke-opacity:1;paint-order:normal"
         d="M 198.4375,80.041679 A 92.604156,21.166666 0 0 1 105.83334,101.20835 92.604156,21.166666 0 0 1 13.229187,80.041679 92.604156,21.166666 0 0 1 105.83334,58.875013 92.604156,21.166666 0 0 1 198.4375,80.041679 Z"
         id="path14"
         inkscape:connector-curvature="0" />
      <path
         style="opacity:1;fill:#ffc255;fill-opacity:1;stroke:#000000;stroke-width:0.30000001;stroke-linecap:square;stroke-linejoin:miter;stroke-miterlimit:4;stroke-dasharray:none;stroke-dashoffset:0;stroke-opacity:1;paint-order:normal"
         d="M 169.33335,80.041671 A 63.500011,15.497017 0 0 1 105.83334,95.538688 63.500011,15.497017 0 0 1 42.333332,80.041671 63.500011,15.497017 0 0 1 105.83334,64.544654 63.500011,15.497017 0 0 1 169.33335,80.041671 Z"
         id="path14-9"
         inkscape:connector-curvature="0" />
      <path
         style="opacity:1;fill:#89ff55;fill-opacity:1;stroke:#000000;stroke-width:0.30000001;stroke-linecap:square;stroke-linejoin:miter;stroke-miterlimit:4;stroke-dasharray:none;stroke-dashoffset:0;stroke-opacity:1;paint-order:normal"
         d="m 141.5521,80.041671 a 35.718761,9.9218693 0 0 1 -35.71876,9.92187 35.718761,9.9218693 0 0 1 -35.718758,-9.92187 35.718761,9.9218693 0 0 1 35.718758,-9.921869 35.718761,9.9218693 0 0 1 35.71876,9.921869 z"
         id="path14-3"
         inkscape:connector-curvature="0" />
      <path
         style="opacity:1;fill:#5571ff;fill-opacity:1;stroke:#000000;stroke-width:0.30000001;stroke-linecap:square;stroke-linejoin:miter;stroke-miterlimit:4;stroke-dasharray:none;stroke-dashoffset:0;stroke-opacity:1;paint-order:normal"
         d="m 120.38544,80.041671 a 14.552094,4.6302018 0 0 1 -14.5521,4.630202 14.552094,4.6302018 0 0 1 -14.552091,-4.630202 14.552094,4.6302018 0 0 1 14.552091,-4.630202 14.552094,4.6302018 0 0 1 14.5521,4.630202 z"
         id="path14-2"
         inkscape:connector-curvature="0" />
      <path
         style="opacity:1;fill:#ff5905;fill-opacity:1;stroke:#000000;stroke-width:0.30000001;stroke-linecap:square;stroke-linejoin:miter;stroke-miterlimit:4;stroke-dasharray:none;stroke-dashoffset:0;stroke-opacity:1;paint-order:normal"
         d="m 198.43749,249.37517 a 92.604156,21.166666 0 0 1 -92.60416,21.16666 92.604156,21.166666 0 0 1 -92.604153,-21.16666 92.604156,21.166666 0 0 1 92.604153,-21.16667 92.604156,21.166666 0 0 1 92.60416,21.16667 z"
         id="path14-8"
         inkscape:connector-curvature="0" />
      <path
         inkscape:connector-curvature="0"
         id="path1107"
         d="m 105.83333,58.874968 a 92.604155,21.166666 0 0 0 -92.604163,21.166667 92.604155,21.166666 0 0 0 0.269234,1.567346 L 42.333333,249.37505 a 63.50001,15.497017 0 0 0 63.499997,15.49725 63.50001,15.497017 0 0 0 63.5,-15.49725 L 198.4375,80.041635 A 92.604155,21.166666 0 0 0 105.83333,58.874968 Z"
         style="fill:url(#linearGradient3337);fill-opacity:1;stroke:#000000;stroke-width:0.26458332px;stroke-linecap:butt;stroke-linejoin:miter;stroke-opacity:1" />
      <path
         style="opacity:1;fill:#fdc400;fill-opacity:1;stroke:#000000;stroke-width:0.30000001;stroke-linecap:square;stroke-linejoin:miter;stroke-miterlimit:4;stroke-dasharray:none;stroke-dashoffset:0;stroke-opacity:1;paint-order:normal"
         d="m 169.33334,249.37516 a 63.500011,15.497017 0 0 1 -63.50001,15.49702 63.500011,15.497017 0 0 1 -63.500008,-15.49702 63.500011,15.497017 0 0 1 63.500008,-15.49702 63.500011,15.497017 0 0 1 63.50001,15.49702 z"
         id="path14-9-9"
         inkscape:connector-curvature="0" />
      <path
         inkscape:connector-curvature="0"
         id="path1201"
         d="m 105.83333,64.544907 a 63.50001,15.497017 0 0 0 -63.499997,15.496728 63.50001,15.497017 0 0 0 0.190169,1.158068 l 27.59108,168.175347 a 35.71876,9.9218693 0 0 0 35.718748,9.92188 35.71876,9.9218693 0 0 0 35.71875,-9.92188 L 169.33333,80.041635 a 63.50001,15.497017 0 0 0 -63.5,-15.496728 z"
         style="fill:url(#linearGradient1290);fill-opacity:1;stroke:#000000;stroke-width:0.26458332px;stroke-linecap:butt;stroke-linejoin:miter;stroke-opacity:1" />
      <path
         style="opacity:1;fill:#88ff02;fill-opacity:1;stroke:#000000;stroke-width:0.30000001;stroke-linecap:square;stroke-linejoin:miter;stroke-miterlimit:4;stroke-dasharray:none;stroke-dashoffset:0;stroke-opacity:1;paint-order:normal"
         d="m 141.55209,249.37516 a 35.718761,9.9218693 0 0 1 -35.71876,9.92187 35.718761,9.9218693 0 0 1 -35.718758,-9.92187 35.718761,9.9218693 0 0 1 35.718758,-9.92187 35.718761,9.9218693 0 0 1 35.71876,9.92187 z"
         id="path14-3-7"
         inkscape:connector-curvature="0" />
      <path
         inkscape:connector-curvature="0"
         id="path1203"
         d="M 105.83333,70.11976 A 35.71876,9.9218693 0 0 0 70.114582,80.041635 L 91.281249,249.37505 a 14.552094,4.6302017 0 0 0 14.552081,4.63021 14.552094,4.6302017 0 0 0 14.55209,-4.63021 L 141.55208,80.041635 A 35.71876,9.9218693 0 0 0 105.83333,70.11976 Z"
         style="fill:url(#linearGradient1282);fill-opacity:1;stroke:#000000;stroke-width:0.26458332px;stroke-linecap:butt;stroke-linejoin:miter;stroke-opacity:1" />
      <path
         style="opacity:1;fill:#b021ff;fill-opacity:1;stroke:#000000;stroke-width:0.30000001;stroke-linecap:square;stroke-linejoin:miter;stroke-miterlimit:4;stroke-dasharray:none;stroke-dashoffset:0;stroke-opacity:1;paint-order:normal"
         d="m 120.38543,249.37516 a 14.552094,4.6302018 0 0 1 -14.5521,4.6302 14.552094,4.6302018 0 0 1 -14.552091,-4.6302 14.552094,4.6302018 0 0 1 14.552091,-4.6302 14.552094,4.6302018 0 0 1 14.5521,4.6302 z"
         id="path14-2-3"
         inkscape:connector-curvature="0" />
      <path
         id="path1107-0"
         d="m 105.83335,270.54176 a 92.604156,21.166666 0 0 0 92.60417,-21.16667 92.604156,21.166666 0 0 0 -0.26923,-1.56734 L 169.33335,80.041671 a 63.500011,15.497017 0 0 0 -63.5,-15.49725 63.500011,15.497017 0 0 0 -63.500003,15.49725 L 13.229187,249.37509 a 92.604156,21.166666 0 0 0 92.604163,21.16667 z"
         style="fill:none;fill-opacity:1;stroke:#000000;stroke-width:0.5;stroke-linecap:butt;stroke-linejoin:miter;stroke-miterlimit:4;stroke-dasharray:2, 2;stroke-dashoffset:0;stroke-opacity:1"
         inkscape:connector-curvature="0" />
      <path
         id="path1201-6"
         d="m 105.83335,264.87182 a 63.500011,15.497017 0 0 0 63.5,-15.49673 63.500011,15.497017 0 0 0 -0.19017,-1.15806 L 141.5521,80.041671 a 35.718761,9.9218694 0 0 0 -35.71875,-9.92188 35.718761,9.9218694 0 0 0 -35.718753,9.92188 L 42.333347,249.37509 a 63.500011,15.497017 0 0 0 63.500003,15.49673 z"
         style="fill:none;fill-opacity:1;stroke:#000000;stroke-width:0.5;stroke-linecap:butt;stroke-linejoin:miter;stroke-miterlimit:4;stroke-dasharray:2, 2;stroke-dashoffset:0;stroke-opacity:1"
         inkscape:connector-curvature="0" />
      <path
         id="path1203-1"
         d="m 105.83335,259.29697 a 35.718761,9.9218694 0 0 0 35.71875,-9.92188 L 120.38544,80.041671 a 14.552094,4.6302017 0 0 0 -14.55209,-4.63021 14.552094,4.6302017 0 0 0 -14.552083,4.63021 L 70.114597,249.37509 a 35.718761,9.9218694 0 0 0 35.718753,9.92188 z"
         style="fill:none;fill-opacity:1;stroke:#000000;stroke-width:0.5;stroke-linecap:butt;stroke-linejoin:miter;stroke-miterlimit:4;stroke-dasharray:2, 2;stroke-dashoffset:0;stroke-opacity:1"
         inkscape:connector-curvature="0" />
    </g>
    <g
       aria-label="If A ≼ B and B ≼ A, then A ∼ B"
       style="font-style:italic;font-variant:normal;font-weight:normal;font-stretch:normal;font-size:7.05555534px;line-height:1.25;font-family:'TeX Gyre Pagella';-inkscape-font-specification:'TeX Gyre Pagella Italic';letter-spacing:0px;word-spacing:0px;fill:#000000;fill-opacity:0.58823529;stroke:none;stroke-width:0.26458332"
       id="text1069">
      <path
         d="m 59.901752,40.884612 c 0.296334,-0.01411 0.592667,-0.02117 0.889,-0.02117 0.296334,0 0.592667,0.0071 0.889,0.02117 l 0.02117,-0.197556 -0.366889,-0.02117 c -0.1905,-0.01411 -0.254,-0.0635 -0.254,-0.204611 0,-0.04939 0.0071,-0.112889 0.01411,-0.148167 l 0.627945,-3.774722 c 0.04939,-0.275167 0.08467,-0.3175 0.359833,-0.338667 l 0.246945,-0.02117 0.02117,-0.197556 c -0.261055,0.01411 -0.529166,0.02117 -0.790222,0.02117 -0.324556,0 -0.642056,-0.0071 -0.959556,-0.02117 l -0.02117,0.197556 0.331611,0.01411 c 0.169333,0.0071 0.246944,0.0635 0.246944,0.183444 0,0.0635 -0.03528,0.388056 -0.0635,0.543278 l -0.508,3.062111 c -0.105833,0.627944 -0.127,0.663222 -0.409222,0.684389 l -0.254,0.02117 z"
         style="font-style:italic;font-variant:normal;font-weight:normal;font-stretch:normal;font-family:'TeX Gyre Pagella';-inkscape-font-specification:'TeX Gyre Pagella Italic';fill:#000000;fill-opacity:0.58823529;stroke-width:0.26458332"
         id="path1037" />
      <path
         d="m 61.065809,42.754334 c 0.0635,0.03528 0.169333,0.05644 0.246944,0.05644 0.289278,0 0.670278,-0.218723 0.945445,-0.550334 0.430389,-0.508 0.578555,-0.994833 1.100666,-3.478389 0.03528,-0.176388 0.09172,-0.388055 0.134056,-0.620888 h 0.733778 c 0.02822,-0.134056 0.07761,-0.296334 0.119944,-0.395112 l -0.02822,-0.04939 -0.04939,0.01411 c -0.169333,0.04939 -0.246944,0.04939 -0.592667,0.04939 h -0.112888 l 0.148166,-0.790223 c 0.112889,-0.606777 0.310445,-0.874888 0.635,-0.874888 0.211667,0 0.402167,0.105833 0.508,0.275166 l 0.07056,-0.02822 0.162277,-0.472722 0.03528,-0.105834 c -0.119944,-0.05644 -0.324555,-0.09172 -0.493889,-0.09172 -0.07761,0 -0.1905,0.02117 -0.246944,0.04939 -0.169333,0.07761 -0.747889,0.508 -0.910167,0.677333 -0.155222,0.155223 -0.239889,0.366889 -0.3175,0.769056 L 63.04842,37.74489 c -0.289278,0.141111 -0.430389,0.197555 -0.606778,0.261055 l -0.03528,0.155223 h 0.5715 l -0.0635,0.395111 c -0.218722,1.375833 -0.472722,2.688166 -0.627944,3.175 -0.134056,0.416277 -0.338667,0.635 -0.592667,0.635 -0.162277,0 -0.246944,-0.04939 -0.366889,-0.204612 l -0.09878,0.02822 c -0.02822,0.162277 -0.127,0.500944 -0.162278,0.564444 z"
         style="font-style:italic;font-variant:normal;font-weight:normal;font-stretch:normal;font-family:'TeX Gyre Pagella';-inkscape-font-specification:'TeX Gyre Pagella Italic';fill:#000000;fill-opacity:0.58823529;stroke-width:0.26458332"
         id="path1039" />
      <path
         d="m 65.795456,40.884612 c 0.261056,-0.01411 0.529167,-0.02117 0.790223,-0.02117 0.254,0 0.508,0.0071 0.754944,0.02117 v -0.197556 l -0.366889,-0.02117 c -0.119944,-0.0071 -0.218722,-0.07056 -0.218722,-0.134056 0,-0.05644 0.04233,-0.148166 0.183444,-0.388055 l 0.719667,-1.234723 h 1.735667 l 0.1905,1.411112 c 0.0071,0.0635 0.01411,0.119944 0.01411,0.155222 0,0.112889 -0.105834,0.176389 -0.303389,0.1905 l -0.310445,0.02117 v 0.197556 c 0.289278,-0.01411 0.5715,-0.02117 0.860778,-0.02117 0.289278,0 0.578556,0.0071 0.860778,0.02117 v -0.197556 l -0.183444,-0.02117 c -0.331612,-0.03528 -0.352778,-0.04939 -0.395112,-0.366889 l -0.613833,-4.409722 h -0.324555 l -2.631723,4.183944 c -0.246944,0.395111 -0.381,0.508 -0.620888,0.564445 l -0.141112,0.03528 z m 2.039056,-2.229556 1.262944,-2.031999 0.261056,2.031999 z"
         style="font-style:italic;font-variant:normal;font-weight:normal;font-stretch:normal;font-family:'TeX Gyre Pagella';-inkscape-font-specification:'TeX Gyre Pagella Italic';fill:#000000;fill-opacity:0.58823529;stroke-width:0.26458332"
         id="path1041" />
      <path
         d="m 73.356586,38.44339 c 1.601611,0.07055 3.097389,0.839611 4.071056,2.109611 0.04939,-0.05645 0.09878,-0.105833 0.155222,-0.148167 0.05644,-0.04233 0.119944,-0.07761 0.183444,-0.112889 -0.776111,-1.001889 -1.848555,-1.721555 -3.055055,-2.060222 1.2065,-0.331611 2.278944,-1.051278 3.055055,-2.053166 -0.0635,-0.03528 -0.127,-0.07056 -0.183444,-0.112889 -0.05644,-0.04233 -0.105833,-0.09172 -0.155222,-0.148167 -0.973667,1.27 -2.469445,2.039055 -4.071056,2.102555 0.01411,0.07056 0.02117,0.141112 0.02117,0.211667 0,0.07761 -0.0071,0.148167 -0.02117,0.211667 z m 0.0071,1.277055 c 1.566333,0.07761 2.9845,1.051278 3.612444,2.561167 0.0635,-0.04233 0.127,-0.07761 0.1905,-0.09878 0.0635,-0.02822 0.134056,-0.04939 0.204611,-0.0635 -0.6985,-1.672166 -2.271888,-2.737555 -4.007555,-2.822222 0.01411,0.07056 0.02117,0.141111 0.02117,0.211667 0,0.07056 -0.0071,0.141111 -0.02117,0.211666 z"
         style="font-style:italic;font-variant:normal;font-weight:normal;font-stretch:normal;font-family:'TeX Gyre Pagella';-inkscape-font-specification:'TeX Gyre Pagella Italic';fill:#000000;fill-opacity:0.58823529;stroke-width:0.26458332"
         id="path1043" />
      <path
         d="m 80.279188,40.884612 c 0.211666,-0.01411 0.430388,-0.02117 0.642055,-0.02117 0.381,0 0.754945,0.02117 1.135945,0.02117 0.338666,0 0.670277,-0.07761 1.001888,-0.275167 0.557389,-0.331611 0.867834,-0.811389 0.867834,-1.347611 0,-0.303389 -0.09878,-0.536222 -0.289278,-0.691444 -0.183444,-0.148167 -0.395111,-0.211667 -0.881944,-0.282222 0.402166,-0.141112 0.5715,-0.232834 0.797277,-0.423334 0.3175,-0.282222 0.486834,-0.606777 0.486834,-0.966611 0,-0.578555 -0.5715,-0.917222 -1.114778,-0.917222 -0.352778,0 -0.705556,0.02117 -1.058333,0.02117 -0.359834,0 -0.712612,-0.0071 -1.065389,-0.02117 l -0.02117,0.197556 0.373944,0.01411 c 0.169334,0.0071 0.246945,0.0635 0.246945,0.1905 0,0.09878 -0.02822,0.324555 -0.0635,0.536222 l -0.613833,3.556 c -0.02117,0.127 -0.112889,0.176389 -0.409223,0.225778 z m 0.987777,-0.310444 0.359834,-2.109612 h 0.599722 c 0.726722,0 1.0795,0.296334 1.0795,0.910167 0,0.726722 -0.515056,1.248833 -1.220611,1.248833 -0.141111,0 -0.345722,-0.0071 -0.578556,-0.02822 -0.04233,-0.0071 -0.127,-0.01411 -0.239889,-0.02117 z m 0.402167,-2.363612 0.345722,-1.933222 c 0.1905,0 0.373945,-0.03528 0.564445,-0.03528 0.5715,0 0.853722,0.254 0.853722,0.783166 0,0.740833 -0.522111,1.185333 -1.397,1.185333 z"
         style="font-style:italic;font-variant:normal;font-weight:normal;font-stretch:normal;font-family:'TeX Gyre Pagella';-inkscape-font-specification:'TeX Gyre Pagella Italic';fill:#000000;fill-opacity:0.58823529;stroke-width:0.26458332"
         id="path1045" />
      <path
         d="m 86.201114,40.397779 c 0,0.303389 0.105833,0.543277 0.239889,0.543277 0.148166,0 0.409222,-0.148166 0.670277,-0.373944 0.303389,-0.261056 0.585612,-0.592667 0.973667,-1.143 l -0.204611,0.896056 c -0.02822,0.127 -0.04233,0.246944 -0.04233,0.359833 0,0.162278 0.0635,0.261055 0.169333,0.261055 0.162278,0 0.451556,-0.197555 1.030111,-0.677333 l -0.04939,-0.148167 c -0.04939,0.04233 -0.05644,0.04939 -0.09172,0.07761 -0.225778,0.1905 -0.331611,0.254 -0.437444,0.254 -0.07056,0 -0.105834,-0.05644 -0.105834,-0.169334 0,-0.02822 0,-0.04939 0.0071,-0.07055 l 0.649111,-2.674056 -0.07056,-0.0635 -0.232833,0.127 c -0.275167,-0.105833 -0.409222,-0.134055 -0.599722,-0.134055 -0.197556,0 -0.338667,0.03528 -0.529167,0.127 -0.4445,0.218722 -0.670278,0.430388 -0.846667,0.776111 -0.310444,0.627944 -0.529166,1.467555 -0.529166,2.032 z m 0.508,-0.232834 c 0,-0.451555 0.183444,-1.234722 0.430389,-1.820333 0.169333,-0.409222 0.338666,-0.536222 0.684389,-0.536222 0.162277,0 0.296333,0.02822 0.599722,0.134055 -0.155222,0.754945 -0.289278,1.121834 -0.522111,1.481667 -0.388056,0.592667 -0.832556,1.023056 -1.065389,1.023056 -0.08467,0 -0.127,-0.09172 -0.127,-0.282223 z"
         style="font-style:italic;font-variant:normal;font-weight:normal;font-stretch:normal;font-family:'TeX Gyre Pagella';-inkscape-font-specification:'TeX Gyre Pagella Italic';fill:#000000;fill-opacity:0.58823529;stroke-width:0.26458332"
         id="path1047" />
      <path
         d="m 89.470372,38.12589 0.04939,0.141111 0.225778,-0.148167 c 0.254,-0.169333 0.282222,-0.176389 0.331611,-0.176389 0.07761,0 0.127,0.07056 0.127,0.176389 0,0.359834 -0.289278,1.721556 -0.578556,2.7305 l 0.04939,0.07761 c 0.176389,-0.04939 0.338667,-0.09172 0.493889,-0.119944 0.134056,-0.889 0.289278,-1.347611 0.606778,-1.834445 0.388055,-0.592666 0.910166,-1.030111 1.227666,-1.030111 0.07761,0 0.119945,0.0635 0.119945,0.169334 0,0.127 -0.02117,0.275166 -0.07761,0.500944 l -0.366889,1.495778 c -0.0635,0.261055 -0.09172,0.423333 -0.09172,0.536222 0,0.176389 0.07761,0.282222 0.211666,0.282222 0.183445,0 0.437445,-0.148166 1.128889,-0.663222 l -0.07055,-0.127 -0.183445,0.119945 c -0.204611,0.134055 -0.359833,0.211666 -0.430389,0.211666 -0.04939,0 -0.09172,-0.0635 -0.09172,-0.141111 0,-0.03528 0.0071,-0.112889 0.01411,-0.141111 l 0.465667,-1.947333 c 0.04939,-0.204611 0.07761,-0.402167 0.07761,-0.522111 0,-0.162278 -0.07761,-0.254 -0.218722,-0.254 -0.296334,0 -0.783167,0.268111 -1.199445,0.656166 -0.268111,0.246945 -0.465666,0.486834 -0.832555,1.001889 l 0.268111,-1.135944 c 0.02822,-0.127 0.04233,-0.211667 0.04233,-0.289278 0,-0.148167 -0.05644,-0.232833 -0.162278,-0.232833 -0.148166,0 -0.423333,0.155222 -0.938388,0.522111 z"
         style="font-style:italic;font-variant:normal;font-weight:normal;font-stretch:normal;font-family:'TeX Gyre Pagella';-inkscape-font-specification:'TeX Gyre Pagella Italic';fill:#000000;fill-opacity:0.58823529;stroke-width:0.26458332"
         id="path1049" />
      <path
         d="m 93.348391,40.256668 c 0,0.458611 0.105834,0.684388 0.310445,0.684388 0.1905,0 0.451555,-0.119944 0.691444,-0.310444 0.381,-0.310444 0.613834,-0.585611 1.086556,-1.298222 l -0.162278,0.642055 c -0.07761,0.310445 -0.112889,0.536223 -0.112889,0.719667 0,0.148167 0.0635,0.246944 0.183445,0.246944 0.119944,0 0.289277,-0.09878 0.529166,-0.275166 l 0.5715,-0.423334 -0.07055,-0.134055 -0.310445,0.218722 c -0.09878,0.07056 -0.211666,0.119945 -0.275166,0.119945 -0.05644,0 -0.09878,-0.0635 -0.09878,-0.162278 0,-0.05644 0.01411,-0.119945 0.05644,-0.324556 l 0.889,-4.191 -0.08467,-0.07761 c -0.366889,0.183445 -0.620889,0.246945 -1.128889,0.296334 l -0.02822,0.148166 h 0.338667 c 0.169333,0 0.239889,0.04939 0.239889,0.169334 0,0.05644 -0.0071,0.119944 -0.01411,0.169333 l -0.197556,1.086555 c -0.211666,-0.0635 -0.402166,-0.09878 -0.578555,-0.09878 -0.486834,0 -1.150056,0.508 -1.474611,1.121833 -0.218722,0.409222 -0.359834,1.0795 -0.359834,1.672167 z m 0.508,-0.08467 c 0,-0.889 0.324556,-1.989667 0.670278,-2.257778 0.09172,-0.07055 0.225778,-0.105833 0.416278,-0.105833 0.310444,0 0.515055,0.04233 0.747889,0.162278 l -0.08467,0.416277 c -0.127,0.620889 -0.472722,1.241778 -0.910167,1.658056 -0.246944,0.232833 -0.529166,0.402167 -0.663222,0.402167 -0.112889,0 -0.176389,-0.09878 -0.176389,-0.275167 z"
         style="font-style:italic;font-variant:normal;font-weight:normal;font-stretch:normal;font-family:'TeX Gyre Pagella';-inkscape-font-specification:'TeX Gyre Pagella Italic';fill:#000000;fill-opacity:0.58823529;stroke-width:0.26458332"
         id="path1051" />
      <path
         d="m 98.703559,40.884612 c 0.211667,-0.01411 0.430389,-0.02117 0.642056,-0.02117 0.381,0 0.754945,0.02117 1.135945,0.02117 0.33867,0 0.67028,-0.07761 1.00189,-0.275167 0.55739,-0.331611 0.86783,-0.811389 0.86783,-1.347611 0,-0.303389 -0.0988,-0.536222 -0.28928,-0.691444 -0.18344,-0.148167 -0.39511,-0.211667 -0.88194,-0.282222 0.40217,-0.141112 0.5715,-0.232834 0.79728,-0.423334 0.3175,-0.282222 0.48683,-0.606777 0.48683,-0.966611 0,-0.578555 -0.5715,-0.917222 -1.11478,-0.917222 -0.35278,0 -0.70555,0.02117 -1.05833,0.02117 -0.359834,0 -0.712612,-0.0071 -1.06539,-0.02117 l -0.02117,0.197556 0.373944,0.01411 c 0.169334,0.0071 0.246945,0.0635 0.246945,0.1905 0,0.09878 -0.02822,0.324555 -0.0635,0.536222 l -0.613834,3.556 c -0.02117,0.127 -0.112889,0.176389 -0.409222,0.225778 z m 0.987778,-0.310444 0.359833,-2.109612 h 0.59972 c 0.72672,0 1.0795,0.296334 1.0795,0.910167 0,0.726722 -0.51505,1.248833 -1.22061,1.248833 -0.14111,0 -0.34572,-0.0071 -0.578554,-0.02822 -0.04233,-0.0071 -0.127,-0.01411 -0.239889,-0.02117 z m 0.402163,-2.363612 0.34573,-1.933222 c 0.1905,0 0.37394,-0.03528 0.56444,-0.03528 0.5715,0 0.85372,0.254 0.85372,0.783166 0,0.740833 -0.52211,1.185333 -1.397,1.185333 z"
         style="font-style:italic;font-variant:normal;font-weight:normal;font-stretch:normal;font-family:'TeX Gyre Pagella';-inkscape-font-specification:'TeX Gyre Pagella Italic';fill:#000000;fill-opacity:0.58823529;stroke-width:0.26458332"
         id="path1053" />
      <path
         d="m 105.16171,38.44339 c 1.60161,0.07055 3.09739,0.839611 4.07105,2.109611 0.0494,-0.05645 0.0988,-0.105833 0.15523,-0.148167 0.0564,-0.04233 0.11994,-0.07761 0.18344,-0.112889 -0.77611,-1.001889 -1.84856,-1.721555 -3.05506,-2.060222 1.2065,-0.331611 2.27895,-1.051278 3.05506,-2.053166 -0.0635,-0.03528 -0.127,-0.07056 -0.18344,-0.112889 -0.0564,-0.04233 -0.10584,-0.09172 -0.15523,-0.148167 -0.97366,1.27 -2.46944,2.039055 -4.07105,2.102555 0.0141,0.07056 0.0212,0.141112 0.0212,0.211667 0,0.07761 -0.007,0.148167 -0.0212,0.211667 z m 0.007,1.277055 c 1.56634,0.07761 2.9845,1.051278 3.61245,2.561167 0.0635,-0.04233 0.127,-0.07761 0.1905,-0.09878 0.0635,-0.02822 0.13405,-0.04939 0.20461,-0.0635 -0.6985,-1.672166 -2.27189,-2.737555 -4.00756,-2.822222 0.0141,0.07056 0.0212,0.141111 0.0212,0.211667 0,0.07056 -0.007,0.141111 -0.0212,0.211666 z"
         style="font-style:italic;font-variant:normal;font-weight:normal;font-stretch:normal;font-family:'TeX Gyre Pagella';-inkscape-font-specification:'TeX Gyre Pagella Italic';fill:#000000;fill-opacity:0.58823529;stroke-width:0.26458332"
         id="path1055" />
      <path
         d="m 111.76681,40.884612 c 0.26105,-0.01411 0.52916,-0.02117 0.79022,-0.02117 0.254,0 0.508,0.0071 0.75494,0.02117 v -0.197556 l -0.36688,-0.02117 c -0.11995,-0.0071 -0.21873,-0.07056 -0.21873,-0.134056 0,-0.05644 0.0423,-0.148166 0.18345,-0.388055 l 0.71966,-1.234723 h 1.73567 l 0.1905,1.411112 c 0.007,0.0635 0.0141,0.119944 0.0141,0.155222 0,0.112889 -0.10583,0.176389 -0.30339,0.1905 l -0.31044,0.02117 v 0.197556 c 0.28928,-0.01411 0.5715,-0.02117 0.86078,-0.02117 0.28927,0 0.57855,0.0071 0.86077,0.02117 v -0.197556 l -0.18344,-0.02117 c -0.33161,-0.03528 -0.35278,-0.04939 -0.39511,-0.366889 l -0.61383,-4.409722 h -0.32456 l -2.63172,4.183944 c -0.24695,0.395111 -0.381,0.508 -0.62089,0.564445 l -0.14111,0.03528 z m 2.03905,-2.229556 1.26295,-2.031999 0.26105,2.031999 z"
         style="font-style:italic;font-variant:normal;font-weight:normal;font-stretch:normal;font-family:'TeX Gyre Pagella';-inkscape-font-specification:'TeX Gyre Pagella Italic';fill:#000000;fill-opacity:0.58823529;stroke-width:0.26458332"
         id="path1057" />
      <path
         d="m 116.91825,41.801834 0.0494,0.07056 0.24695,-0.09172 c 0.51505,-0.635 0.83961,-1.135944 1.0795,-1.693333 l -0.0635,-0.09172 -0.64206,0.204611 -0.0564,0.225778 c -0.15522,0.627944 -0.33161,1.016 -0.61383,1.375833 z"
         style="font-style:italic;font-variant:normal;font-weight:normal;font-stretch:normal;font-family:'TeX Gyre Pagella';-inkscape-font-specification:'TeX Gyre Pagella Italic';fill:#000000;fill-opacity:0.58823529;stroke-width:0.26458332"
         id="path1059" />
      <path
         d="m 120.67886,38.111779 h 0.59266 l -0.39511,1.996722 c -0.0353,0.176389 -0.0917,0.352778 -0.0917,0.536222 0,0.176389 0.0776,0.282222 0.21167,0.282222 0.24694,0 0.48683,-0.141111 1.04422,-0.585611 0.127,-0.09878 0.0847,-0.07056 0.21872,-0.176389 l -0.0705,-0.127 -0.3175,0.218723 c -0.21167,0.148166 -0.34573,0.211666 -0.43039,0.211666 -0.0564,0 -0.0917,-0.05644 -0.0917,-0.141111 0,-0.183444 0.0847,-0.733778 0.30338,-1.778 l 0.0917,-0.437444 h 0.75494 l 0.0776,-0.352778 c -0.26811,0.02822 -0.508,0.04233 -0.77611,0.04233 0.11289,-0.663222 0.1905,-1.008944 0.3175,-1.389944 l -0.0776,-0.105833 c -0.14111,0.08467 -0.33161,0.169333 -0.55033,0.254 l -0.17639,1.199444 c -0.31045,0.148167 -0.49389,0.225778 -0.62089,0.261055 z"
         style="font-style:italic;font-variant:normal;font-weight:normal;font-stretch:normal;font-family:'TeX Gyre Pagella';-inkscape-font-specification:'TeX Gyre Pagella Italic';fill:#000000;fill-opacity:0.58823529;stroke-width:0.26458332"
         id="path1061" />
      <path
         d="m 122.63743,40.849334 0.0494,0.07761 0.48684,-0.112889 c 0.11289,-0.811388 0.23283,-1.241777 0.43744,-1.615722 0.31045,-0.5715 1.04422,-1.255889 1.34056,-1.255889 0.0917,0 0.15522,0.0635 0.15522,0.155223 0,0.127 -0.0423,0.395111 -0.10583,0.627944 l -0.35984,1.382889 c -0.0635,0.254 -0.0917,0.409222 -0.0917,0.543278 0,0.169333 0.0776,0.275166 0.21167,0.275166 0.18344,0 0.43744,-0.148166 1.12889,-0.663222 l -0.0706,-0.127 -0.18344,0.119945 c -0.20462,0.134055 -0.35984,0.211666 -0.43039,0.211666 -0.0494,0 -0.0917,-0.0635 -0.0917,-0.141111 0,-0.07055 0.007,-0.127 0.0494,-0.282222 l 0.45156,-1.806222 c 0.0423,-0.183445 0.0776,-0.402167 0.0776,-0.522111 0,-0.155223 -0.0776,-0.254 -0.20461,-0.254 -0.23989,0 -0.67028,0.232833 -1.11478,0.606777 -0.24694,0.204611 -0.35983,0.338667 -0.69144,0.747889 l -0.14111,0.176389 0.69144,-3.224389 -0.0847,-0.07761 c -0.36689,0.183445 -0.62089,0.246945 -1.12889,0.296334 l -0.0282,0.148166 h 0.33867 c 0.16933,0 0.23989,0.04939 0.23989,0.169334 0,0.05644 -0.007,0.119944 -0.0141,0.169333 l -0.29634,1.651 c -0.1905,1.065389 -0.47272,2.278944 -0.62089,2.723444 z"
         style="font-style:italic;font-variant:normal;font-weight:normal;font-stretch:normal;font-family:'TeX Gyre Pagella';-inkscape-font-specification:'TeX Gyre Pagella Italic';fill:#000000;fill-opacity:0.58823529;stroke-width:0.26458332"
         id="path1063" />
      <path
         d="m 126.20049,40.073223 c 0,0.543278 0.31045,0.867833 0.81845,0.867833 0.40216,0 0.79022,-0.197555 1.44638,-0.726722 l -0.0564,-0.134055 -0.16933,0.119944 c -0.37395,0.268111 -0.71261,0.409222 -0.96661,0.409222 -0.33867,0 -0.53623,-0.261055 -0.53623,-0.691444 0,-0.183445 0.0141,-0.359833 0.0564,-0.564445 l 0.57855,-0.141111 c 0.11995,-0.02822 0.30339,-0.09878 0.48684,-0.176389 0.59972,-0.268111 0.87489,-0.585611 0.87489,-1.023055 0,-0.331611 -0.23284,-0.550333 -0.59267,-0.550333 -0.45861,0 -1.22767,0.472722 -1.50989,0.924277 -0.21167,0.345723 -0.43039,1.192389 -0.43039,1.686278 z m 0.62795,-0.881944 0.0635,-0.261056 c 0.11288,-0.472722 0.254,-0.776111 0.4445,-0.9525 0.13405,-0.127 0.35983,-0.218722 0.53622,-0.218722 0.20461,0 0.33866,0.141111 0.33866,0.366889 0,0.310444 -0.24694,0.642055 -0.61383,0.818444 -0.19755,0.09172 -0.45155,0.176389 -0.76905,0.246945 z"
         style="font-style:italic;font-variant:normal;font-weight:normal;font-stretch:normal;font-family:'TeX Gyre Pagella';-inkscape-font-specification:'TeX Gyre Pagella Italic';fill:#000000;fill-opacity:0.58823529;stroke-width:0.26458332"
         id="path1065" />
      <path
         d="m 129.00629,38.12589 0.0494,0.141111 0.22578,-0.148167 c 0.254,-0.169333 0.28222,-0.176389 0.33161,-0.176389 0.0776,0 0.127,0.07056 0.127,0.176389 0,0.359834 -0.28927,1.721556 -0.57855,2.7305 l 0.0494,0.07761 c 0.17639,-0.04939 0.33866,-0.09172 0.49389,-0.119944 0.13405,-0.889 0.28927,-1.347611 0.60677,-1.834445 0.38806,-0.592666 0.91017,-1.030111 1.22767,-1.030111 0.0776,0 0.11994,0.0635 0.11994,0.169334 0,0.127 -0.0212,0.275166 -0.0776,0.500944 l -0.36689,1.495778 c -0.0635,0.261055 -0.0917,0.423333 -0.0917,0.536222 0,0.176389 0.0776,0.282222 0.21167,0.282222 0.18344,0 0.43744,-0.148166 1.12889,-0.663222 l -0.0706,-0.127 -0.18344,0.119945 c -0.20461,0.134055 -0.35984,0.211666 -0.43039,0.211666 -0.0494,0 -0.0917,-0.0635 -0.0917,-0.141111 0,-0.03528 0.007,-0.112889 0.0141,-0.141111 l 0.46566,-1.947333 c 0.0494,-0.204611 0.0776,-0.402167 0.0776,-0.522111 0,-0.162278 -0.0776,-0.254 -0.21873,-0.254 -0.29633,0 -0.78316,0.268111 -1.19944,0.656166 -0.26811,0.246945 -0.46567,0.486834 -0.83256,1.001889 l 0.26811,-1.135944 c 0.0282,-0.127 0.0423,-0.211667 0.0423,-0.289278 0,-0.148167 -0.0564,-0.232833 -0.16228,-0.232833 -0.14817,0 -0.42333,0.155222 -0.93839,0.522111 z"
         style="font-style:italic;font-variant:normal;font-weight:normal;font-stretch:normal;font-family:'TeX Gyre Pagella';-inkscape-font-specification:'TeX Gyre Pagella Italic';fill:#000000;fill-opacity:0.58823529;stroke-width:0.26458332"
         id="path1067" />
      <path
         d="m 134.3942,40.884612 c 0.26105,-0.01411 0.52916,-0.02117 0.79022,-0.02117 0.254,0 0.508,0.0071 0.75494,0.02117 v -0.197556 l -0.36689,-0.02117 c -0.11994,-0.0071 -0.21872,-0.07056 -0.21872,-0.134056 0,-0.05644 0.0423,-0.148166 0.18345,-0.388055 l 0.71966,-1.234723 h 1.73567 l 0.1905,1.411112 c 0.007,0.0635 0.0141,0.119944 0.0141,0.155222 0,0.112889 -0.10583,0.176389 -0.30339,0.1905 l -0.31044,0.02117 v 0.197556 c 0.28927,-0.01411 0.5715,-0.02117 0.86077,-0.02117 0.28928,0 0.57856,0.0071 0.86078,0.02117 v -0.197556 l -0.18344,-0.02117 c -0.33161,-0.03528 -0.35278,-0.04939 -0.39511,-0.366889 l -0.61384,-4.409722 h -0.32455 l -2.63172,4.183944 c -0.24695,0.395111 -0.381,0.508 -0.62089,0.564445 l -0.14111,0.03528 z m 2.03905,-2.229556 1.26295,-2.031999 0.26105,2.031999 z"
         style="font-style:italic;font-variant:normal;font-weight:normal;font-stretch:normal;font-family:'TeX Gyre Pagella';-inkscape-font-specification:'TeX Gyre Pagella Italic';fill:#000000;fill-opacity:0.58823529;stroke-width:0.26458332"
         id="path1069" />
      <path
         d="m 141.95533,39.621668 c 0.0494,0 0.0988,0.0071 0.14111,0.02117 0.0423,0.01411 0.0917,0.03528 0.127,0.0635 0.15522,-0.472722 0.39511,-0.684389 0.72672,-0.776111 0.0564,-0.02117 0.11289,-0.02822 0.16934,-0.02822 0.29633,0 0.5715,0.197555 0.8255,0.373944 0.33161,0.225778 0.70555,0.437445 1.08655,0.437445 0.0847,0 0.17639,-0.0071 0.26811,-0.03528 0.43745,-0.119944 0.67028,-0.472722 0.87489,-1.100667 -0.0494,0 -0.0917,-0.0071 -0.14111,-0.02117 -0.0423,-0.01411 -0.0847,-0.03528 -0.127,-0.0635 -0.15522,0.472722 -0.39511,0.684389 -0.72672,0.776111 -0.0565,0.02117 -0.11289,0.02822 -0.16934,0.02822 -0.29633,0 -0.5715,-0.197556 -0.8255,-0.373944 -0.33161,-0.225778 -0.70555,-0.437445 -1.08655,-0.437445 -0.0847,0 -0.17639,0.0071 -0.26811,0.03528 -0.43745,0.119944 -0.67028,0.472722 -0.87489,1.100667 z"
         style="font-style:italic;font-variant:normal;font-weight:normal;font-stretch:normal;font-family:'TeX Gyre Pagella';-inkscape-font-specification:'TeX Gyre Pagella Italic';fill:#000000;fill-opacity:0.58823529;stroke-width:0.26458332"
         id="path1071" />
      <path
         d="m 148.685,40.884612 c 0.21167,-0.01411 0.43039,-0.02117 0.64206,-0.02117 0.381,0 0.75494,0.02117 1.13594,0.02117 0.33867,0 0.67028,-0.07761 1.00189,-0.275167 0.55739,-0.331611 0.86783,-0.811389 0.86783,-1.347611 0,-0.303389 -0.0988,-0.536222 -0.28927,-0.691444 -0.18345,-0.148167 -0.39512,-0.211667 -0.88195,-0.282222 0.40217,-0.141112 0.5715,-0.232834 0.79728,-0.423334 0.3175,-0.282222 0.48683,-0.606777 0.48683,-0.966611 0,-0.578555 -0.5715,-0.917222 -1.11478,-0.917222 -0.35277,0 -0.70555,0.02117 -1.05833,0.02117 -0.35983,0 -0.71261,-0.0071 -1.06539,-0.02117 l -0.0212,0.197556 0.37394,0.01411 c 0.16933,0.0071 0.24694,0.0635 0.24694,0.1905 0,0.09878 -0.0282,0.324555 -0.0635,0.536222 l -0.61383,3.556 c -0.0212,0.127 -0.11289,0.176389 -0.40922,0.225778 z m 0.98778,-0.310444 0.35983,-2.109612 h 0.59972 c 0.72673,0 1.0795,0.296334 1.0795,0.910167 0,0.726722 -0.51505,1.248833 -1.22061,1.248833 -0.14111,0 -0.34572,-0.0071 -0.57855,-0.02822 -0.0423,-0.0071 -0.127,-0.01411 -0.23989,-0.02117 z m 0.40217,-2.363612 0.34572,-1.933222 c 0.1905,0 0.37394,-0.03528 0.56444,-0.03528 0.5715,0 0.85372,0.254 0.85372,0.783166 0,0.740833 -0.52211,1.185333 -1.397,1.185333 z"
         style="font-style:italic;font-variant:normal;font-weight:normal;font-stretch:normal;font-family:'TeX Gyre Pagella';-inkscape-font-specification:'TeX Gyre Pagella Italic';fill:#000000;fill-opacity:0.58823529;stroke-width:0.26458332"
         id="path1073" />
    </g>
    <g
       aria-label="Cantor-Schröder-Bernstein theorem"
       style="font-style:normal;font-variant:normal;font-weight:bold;font-stretch:normal;font-size:9.87777805px;line-height:1.25;font-family:sans-serif;-inkscape-font-specification:'sans-serif Bold';letter-spacing:0px;word-spacing:0px;fill:#000000;fill-opacity:1;stroke:none;stroke-width:0.26458332"
       id="text1073">
      <path
         d="m 23.814158,21.726387 c 0,2.212623 1.521178,3.595512 3.960989,3.595512 0.908755,0 1.491544,-0.138289 2.2225,-0.543278 l 0.217311,-0.484011 -0.118533,-0.118534 c -0.642056,0.335845 -1.274234,0.503767 -1.926167,0.503767 -1.738489,0 -2.874433,-1.224844 -2.874433,-3.091744 0,-1.698978 0.958144,-2.746023 2.528711,-2.746023 0.750711,0 1.224844,0.187678 1.758244,0.681567 l 0.04939,0.849489 h 0.385234 c 0.108655,-0.948267 0.138288,-1.135945 0.227188,-1.5113 l -0.05927,-0.108656 c -0.898878,-0.3556 -1.452034,-0.464255 -2.3114,-0.464255 -2.499078,0 -4.059767,1.323622 -4.059767,3.437466 z"
         style="font-style:normal;font-variant:normal;font-weight:bold;font-stretch:normal;font-family:'TeX Gyre Pagella';-inkscape-font-specification:'TeX Gyre Pagella Bold';stroke-width:0.26458332"
         id="path1076" />
      <path
         d="m 30.912885,24.097054 c 0,0.8001 0.404989,1.224845 1.1557,1.224845 0.227189,0 0.385233,-0.03951 0.484011,-0.118534 l 0.918633,-0.7112 -0.04939,0.612423 0.04939,0.07902 c 0.296334,-0.01976 0.602545,-0.02963 0.898878,-0.02963 0.286456,0 0.582789,0.0099 0.869245,0.02963 v -0.365478 l -0.296334,-0.02963 C 34.715829,24.768743 34.66644,24.65021 34.66644,24.185954 V 21.89431 c 0,-0.869245 -0.582788,-1.392767 -1.580444,-1.392767 -0.424745,0 -0.809978,0.108656 -1.185333,0.335844 l -0.523523,0.316089 v 0.681567 l 0.296334,0.06914 0.217311,-0.493888 c 0.02963,-0.06914 0.306211,-0.138289 0.572911,-0.138289 0.661811,0 0.9779,0.3556 1.007533,1.165577 l -0.869244,0.1778 c -1.2446,0.256823 -1.6891,0.642056 -1.6891,1.481667 z m 1.205089,-0.256822 c 0,-0.484011 0.207433,-0.681567 0.908755,-0.869245 l 0.4445,-0.118533 v 1.165578 c -0.197555,0.256822 -0.553155,0.4445 -0.849489,0.4445 -0.316089,0 -0.503766,-0.237067 -0.503766,-0.6223 z"
         style="font-style:normal;font-variant:normal;font-weight:bold;font-stretch:normal;font-family:'TeX Gyre Pagella';-inkscape-font-specification:'TeX Gyre Pagella Bold';stroke-width:0.26458332"
         id="path1078" />
      <path
         d="m 35.69373,25.18361 c 0.424744,-0.01976 0.849489,-0.02963 1.274233,-0.02963 0.4445,0 0.889,0.0099 1.3335,0.02963 v -0.365478 l -0.345722,-0.01976 c -0.306211,-0.01975 -0.3556,-0.09878 -0.3556,-0.632177 v -2.143478 c 0,-0.345722 0.404989,-0.671689 0.839611,-0.671689 0.651933,0 0.928511,0.345722 0.928511,1.135944 v 2.696634 c 0.296334,-0.01976 0.592667,-0.02963 0.889,-0.02963 0.335845,0 0.661811,0.0099 0.997656,0.02963 v -0.365478 l -0.325967,-0.01976 c -0.306211,-0.01975 -0.3556,-0.09878 -0.3556,-0.632177 v -1.837267 c 0,-0.760589 -0.0889,-1.135945 -0.345722,-1.412522 -0.256822,-0.2667 -0.661811,-0.414867 -1.145822,-0.414867 -0.296334,0 -0.5334,0.05927 -0.691445,0.187678 l -0.790222,0.612422 V 20.56081 l -0.05927,-0.05927 c -1.027289,0.335844 -1.303866,0.395111 -1.847144,0.424744 v 0.3556 l 0.4445,0.02963 c 0.227189,0.01975 0.256822,0.108655 0.256822,0.691444 v 2.163234 c 0,0.5334 -0.04939,0.612422 -0.3556,0.632177 l -0.345722,0.01976 z"
         style="font-style:normal;font-variant:normal;font-weight:bold;font-stretch:normal;font-family:'TeX Gyre Pagella';-inkscape-font-specification:'TeX Gyre Pagella Bold';stroke-width:0.26458332"
         id="path1080" />
      <path
         d="m 41.712537,21.548587 0.632178,-0.03951 v 2.558345 c 0,0.879122 0.365478,1.254478 1.224844,1.254478 0.306211,0 0.553156,-0.06914 0.642056,-0.1778 l 0.484011,-0.582789 -0.07902,-0.187678 c -0.207434,0.09878 -0.296334,0.128411 -0.454378,0.128411 -0.464256,0 -0.612422,-0.158044 -0.612422,-0.642055 v -2.350912 h 1.047044 l 0.07902,-0.642055 c -0.375355,0.03951 -0.750711,0.05927 -1.126066,0.05927 v -0.572911 c 0,-0.523522 0.02963,-0.849489 0.118533,-1.343378 l -0.138289,-0.09878 c -0.395111,0.187677 -0.701322,0.306211 -1.205089,0.493889 0.02963,0.523522 0.03951,0.701322 0.03951,0.908755 v 0.592667 l -0.651933,0.424744 z"
         style="font-style:normal;font-variant:normal;font-weight:bold;font-stretch:normal;font-family:'TeX Gyre Pagella';-inkscape-font-specification:'TeX Gyre Pagella Bold';stroke-width:0.26458332"
         id="path1082" />
      <path
         d="m 45.189362,22.941354 c 0,1.521178 0.809977,2.380545 2.242255,2.380545 1.580445,0 2.469445,-0.898878 2.469445,-2.499078 0,-1.501422 -0.809978,-2.321278 -2.271889,-2.321278 -1.570567,0 -2.439811,0.869244 -2.439811,2.439811 z m 1.343377,-0.237067 c 0,-1.195211 0.296334,-1.728611 0.9779,-1.728611 0.7112,0 1.047045,0.701323 1.047045,2.153356 0,1.205089 -0.276578,1.718733 -0.948267,1.718733 -0.7112,0 -1.076678,-0.721077 -1.076678,-2.143478 z"
         style="font-style:normal;font-variant:normal;font-weight:bold;font-stretch:normal;font-family:'TeX Gyre Pagella';-inkscape-font-specification:'TeX Gyre Pagella Bold';stroke-width:0.26458332"
         id="path1084" />
      <path
         d="m 50.588955,25.18361 c 0.424744,-0.01976 0.849489,-0.02963 1.274233,-0.02963 0.493889,0 0.997656,0.0099 1.491545,0.02963 v -0.365478 l -0.385234,-0.01976 c -0.424744,-0.01975 -0.474133,-0.07902 -0.474133,-0.632177 v -1.9558 c 0,-0.306212 0.404989,-0.632178 0.790222,-0.632178 0.246945,0 0.424745,0.118533 0.563034,0.3556 l 0.237066,-0.09878 0.04939,-1.274233 c -0.09878,-0.03951 -0.227189,-0.05927 -0.365478,-0.05927 -0.276577,0 -0.464255,0.118533 -0.839611,0.523522 l -0.434622,0.474134 V 20.56081 l -0.09878,-0.05927 -0.691444,0.217311 c -0.316089,0.09878 -0.493889,0.128411 -1.116189,0.207433 v 0.3556 l 0.4445,0.02963 c 0.227189,0.01975 0.256822,0.108655 0.256822,0.691444 v 2.163234 c 0,0.5334 -0.04939,0.612422 -0.3556,0.632177 l -0.345722,0.01976 z"
         style="font-style:normal;font-variant:normal;font-weight:bold;font-stretch:normal;font-family:'TeX Gyre Pagella';-inkscape-font-specification:'TeX Gyre Pagella Bold';stroke-width:0.26458332"
         id="path1086" />
      <path
         d="m 54.482807,23.148787 0.07902,0.07902 h 2.5781 c 0.04939,-0.276578 0.158045,-0.632178 0.316089,-0.987778 l -0.0889,-0.09878 h -2.548467 c -0.09878,0.345722 -0.217311,0.671689 -0.335844,1.007533 z"
         style="font-style:normal;font-variant:normal;font-weight:bold;font-stretch:normal;font-family:'TeX Gyre Pagella';-inkscape-font-specification:'TeX Gyre Pagella Bold';stroke-width:0.26458332"
         id="path1088" />
      <path
         d="m 58.18682,24.867521 c 0.730956,0.325967 1.303867,0.454378 2.054578,0.454378 1.768122,0 2.904067,-0.908756 2.904067,-2.341034 0,-0.889 -0.513645,-1.481666 -1.491545,-1.738489 l -1.126066,-0.296333 c -0.730956,-0.197556 -1.047045,-0.493889 -1.047045,-0.997656 0,-0.691444 0.5334,-1.1557 1.323622,-1.1557 0.523523,0 0.968023,0.1778 1.343378,0.543278 l 0.05927,0.809978 h 0.404989 c 0,-0.642056 0.04939,-1.116189 0.138289,-1.402645 l -0.04939,-0.118533 c -0.661811,-0.246944 -1.175456,-0.335844 -1.827389,-0.335844 -1.649589,0 -2.617611,0.790222 -2.617611,2.123722 0,0.839611 0.503766,1.461911 1.442155,1.738489 l 1.382889,0.414867 c 0.553156,0.167922 0.819856,0.474133 0.819856,0.948266 0,0.730956 -0.632178,1.274234 -1.481667,1.274234 -0.671689,0 -1.303867,-0.296334 -1.619955,-0.760589 l -0.06914,-0.869245 h -0.395111 c 0,0.740834 -0.03951,1.145823 -0.148167,1.708856 z"
         style="font-style:normal;font-variant:normal;font-weight:bold;font-stretch:normal;font-family:'TeX Gyre Pagella';-inkscape-font-specification:'TeX Gyre Pagella Bold';stroke-width:0.26458332"
         id="path1090" />
      <path
         d="m 64.027827,22.891965 c 0,1.570567 0.770467,2.429934 2.192867,2.429934 0.493889,0 0.859367,-0.0889 1.323622,-0.335845 l 0.207434,-0.454378 -0.0889,-0.09878 c -0.335845,0.138289 -0.553156,0.187677 -0.839611,0.187677 -0.9779,0 -1.570567,-0.780344 -1.570567,-2.0447 0,-0.898877 0.335844,-1.373011 0.968022,-1.373011 0.454378,0 0.839611,0.197556 0.869245,0.424745 l 0.06914,0.592666 h 0.3556 c 0.05927,-0.632177 0.108656,-0.958144 0.197556,-1.392766 l -0.06914,-0.128411 c -0.454378,-0.158045 -0.661811,-0.197556 -1.017411,-0.197556 -0.375355,0 -0.651933,0.06914 -0.889,0.207433 l -0.513644,0.306211 c -0.879123,0.523523 -1.195212,1.017412 -1.195212,1.876778 z"
         style="font-style:normal;font-variant:normal;font-weight:bold;font-stretch:normal;font-family:'TeX Gyre Pagella';-inkscape-font-specification:'TeX Gyre Pagella Bold';stroke-width:0.26458332"
         id="path1092" />
      <path
         d="m 68.278822,25.18361 c 0.424745,-0.01976 0.849489,-0.02963 1.274234,-0.02963 0.4445,0 0.889,0.0099 1.3335,0.02963 v -0.365478 l -0.345722,-0.01976 c -0.306212,-0.01975 -0.3556,-0.09878 -0.3556,-0.632177 v -2.143478 c 0,-0.345722 0.404988,-0.671689 0.839611,-0.671689 0.651933,0 0.928511,0.345722 0.928511,1.145822 v 2.686756 c 0.296333,-0.01976 0.592666,-0.02963 0.889,-0.02963 0.335844,0 0.661811,0.0099 0.997655,0.02963 v -0.365478 l -0.325966,-0.01976 c -0.306211,-0.01975 -0.3556,-0.09878 -0.3556,-0.632177 v -1.837267 c 0,-0.760589 -0.0889,-1.135945 -0.345723,-1.412522 -0.256822,-0.2667 -0.661811,-0.414867 -1.145822,-0.414867 -0.296333,0 -0.5334,0.05927 -0.691444,0.187678 l -0.790222,0.612422 v -3.2004 l -0.07902,-0.05927 -0.7112,0.217311 c -0.256822,0.07902 -0.582789,0.138289 -1.116189,0.207434 v 0.3556 l 0.4445,0.02963 c 0.227189,0.01976 0.256823,0.108656 0.256823,0.691445 v 4.6228 c 0,0.5334 -0.04939,0.612422 -0.3556,0.632177 l -0.345723,0.01976 z"
         style="font-style:normal;font-variant:normal;font-weight:bold;font-stretch:normal;font-family:'TeX Gyre Pagella';-inkscape-font-specification:'TeX Gyre Pagella Bold';stroke-width:0.26458332"
         id="path1094" />
      <path
         d="m 74.376652,25.18361 c 0.424744,-0.01976 0.849489,-0.02963 1.274233,-0.02963 0.493889,0 0.997656,0.0099 1.491545,0.02963 v -0.365478 l -0.385234,-0.01976 c -0.424744,-0.01975 -0.474133,-0.07902 -0.474133,-0.632177 v -1.9558 c 0,-0.306212 0.404989,-0.632178 0.790222,-0.632178 0.246945,0 0.424745,0.118533 0.563034,0.3556 l 0.237066,-0.09878 0.04939,-1.274233 c -0.09878,-0.03951 -0.227189,-0.05927 -0.365478,-0.05927 -0.276577,0 -0.464255,0.118533 -0.839611,0.523522 l -0.434622,0.474134 V 20.56081 l -0.09878,-0.05927 -0.691444,0.217311 c -0.316089,0.09878 -0.493889,0.128411 -1.116189,0.207433 v 0.3556 l 0.4445,0.02963 c 0.227189,0.01975 0.256822,0.108655 0.256822,0.691444 v 2.163234 c 0,0.5334 -0.04939,0.612422 -0.3556,0.632177 l -0.345722,0.01976 z"
         style="font-style:normal;font-variant:normal;font-weight:bold;font-stretch:normal;font-family:'TeX Gyre Pagella';-inkscape-font-specification:'TeX Gyre Pagella Bold';stroke-width:0.26458332"
         id="path1096" />
      <path
         d="m 78.314644,22.941354 c 0,1.521178 0.809978,2.380545 2.242256,2.380545 1.580444,0 2.469444,-0.898878 2.469444,-2.499078 0,-1.501422 -0.809978,-2.321278 -2.271889,-2.321278 -1.570567,0 -2.439811,0.869244 -2.439811,2.439811 z m 0.612422,-3.704167 c 0,0.365478 0.296333,0.661812 0.661811,0.661812 0.365478,0 0.661811,-0.296334 0.661811,-0.661812 0,-0.3556 -0.296333,-0.661811 -0.651933,-0.661811 -0.375356,0 -0.671689,0.296334 -0.671689,0.661811 z m 0.730956,3.4671 c 0,-1.195211 0.296333,-1.728611 0.9779,-1.728611 0.7112,0 1.047044,0.701323 1.047044,2.153356 0,1.205089 -0.276578,1.718733 -0.948266,1.718733 -0.7112,0 -1.076678,-0.721077 -1.076678,-2.143478 z m 1.392766,-3.476977 c 0,0.375355 0.296334,0.671689 0.661812,0.671689 0.365477,0 0.661811,-0.296334 0.661811,-0.661812 0,-0.3556 -0.296334,-0.661811 -0.651934,-0.661811 -0.375355,0 -0.671689,0.296334 -0.671689,0.651934 z"
         style="font-style:normal;font-variant:normal;font-weight:bold;font-stretch:normal;font-family:'TeX Gyre Pagella';-inkscape-font-specification:'TeX Gyre Pagella Bold';stroke-width:0.26458332"
         id="path1098" />
      <path
         d="m 83.832774,23.010499 c 0,1.412522 0.730956,2.3114 1.886656,2.3114 0.227189,0 0.385233,-0.03951 0.484011,-0.118534 l 1.027289,-0.839611 -0.04939,0.740834 0.04939,0.07902 c 0.296333,-0.01976 0.592667,-0.02963 0.889,-0.02963 0.335845,0 0.661811,0.0099 0.997656,0.02963 v -0.365478 l -0.325967,-0.01976 c -0.306211,-0.01975 -0.3556,-0.09878 -0.3556,-0.632177 v -6.064956 l -0.07902,-0.05927 -0.7112,0.217311 c -0.286456,0.0889 -0.6223,0.148167 -1.195211,0.207434 v 0.3556 l 0.523522,0.02963 c 0.217311,0.0099 0.256822,0.108656 0.256822,0.691445 v 1.205088 l -0.197556,-0.07902 c -0.276577,-0.108655 -0.543277,-0.167922 -0.790222,-0.167922 -0.316089,0 -0.602544,0.0889 -0.869244,0.256822 l -0.7112,0.464256 c -0.563034,0.365478 -0.829734,0.938389 -0.829734,1.787878 z m 1.2446,-0.375356 c 0,-0.997656 0.345723,-1.501422 1.047045,-1.501422 0.424744,0 0.780344,0.197555 1.106311,0.6223 v 1.817511 c 0,0.4445 -0.464256,0.809978 -1.007533,0.809978 -0.701323,0 -1.145823,-0.681567 -1.145823,-1.748367 z"
         style="font-style:normal;font-variant:normal;font-weight:bold;font-stretch:normal;font-family:'TeX Gyre Pagella';-inkscape-font-specification:'TeX Gyre Pagella Bold';stroke-width:0.26458332"
         id="path1100" />
      <path
         d="m 89.871337,22.921599 c 0,1.570566 0.780345,2.4003 2.262011,2.4003 0.572911,0 0.918634,-0.09878 1.560689,-0.424745 l 0.217311,-0.474133 -0.118533,-0.148167 c -0.464256,0.256822 -0.760589,0.345722 -1.165578,0.345722 -0.493889,0 -0.9779,-0.2667 -1.224844,-0.681566 -0.167922,-0.276578 -0.227189,-0.513645 -0.246945,-0.987778 h 1.293989 c 0.563034,0 0.997656,-0.05927 1.560689,-0.197556 v -0.513644 c 0,-1.056922 -0.730955,-1.738489 -1.876778,-1.738489 -0.335844,0 -0.592666,0.06914 -0.859366,0.227189 l -0.464256,0.276578 c -0.651933,0.385233 -0.938389,0.968022 -0.938389,1.916289 z m 1.224845,-0.493889 c 0,-0.9779 0.2667,-1.373011 0.839611,-1.373011 0.563033,0 0.819855,0.395111 0.819855,1.373011 0,0 -0.503766,0.02963 -0.829733,0.02963 -0.197556,0 0.04939,0 -0.513644,-0.01976 z"
         style="font-style:normal;font-variant:normal;font-weight:bold;font-stretch:normal;font-family:'TeX Gyre Pagella';-inkscape-font-specification:'TeX Gyre Pagella Bold';stroke-width:0.26458332"
         id="path1102" />
      <path
         d="m 94.691692,25.18361 c 0.424745,-0.01976 0.849489,-0.02963 1.274234,-0.02963 0.493889,0 0.997655,0.0099 1.491544,0.02963 v -0.365478 l -0.385233,-0.01976 c -0.424745,-0.01975 -0.474133,-0.07902 -0.474133,-0.632177 v -1.9558 c 0,-0.306212 0.404988,-0.632178 0.790222,-0.632178 0.246944,0 0.424744,0.118533 0.563033,0.3556 l 0.237067,-0.09878 0.04939,-1.274233 c -0.09878,-0.03951 -0.227189,-0.05927 -0.365478,-0.05927 -0.276578,0 -0.464256,0.118533 -0.839611,0.523522 l -0.434622,0.474134 V 20.56081 l -0.09878,-0.05927 -0.691445,0.217311 c -0.316089,0.09878 -0.493889,0.128411 -1.116189,0.207433 v 0.3556 l 0.4445,0.02963 c 0.227189,0.01975 0.256823,0.108655 0.256823,0.691444 v 2.163234 c 0,0.5334 -0.04939,0.612422 -0.3556,0.632177 l -0.345723,0.01976 z"
         style="font-style:normal;font-variant:normal;font-weight:bold;font-stretch:normal;font-family:'TeX Gyre Pagella';-inkscape-font-specification:'TeX Gyre Pagella Bold';stroke-width:0.26458332"
         id="path1104" />
      <path
         d="m 98.585546,23.148787 0.07902,0.07902 h 2.578102 c 0.0494,-0.276578 0.15804,-0.632178 0.31609,-0.987778 l -0.0889,-0.09878 h -2.548469 c -0.09878,0.345722 -0.217312,0.671689 -0.335845,1.007533 z"
         style="font-style:normal;font-variant:normal;font-weight:bold;font-stretch:normal;font-family:'TeX Gyre Pagella';-inkscape-font-specification:'TeX Gyre Pagella Bold';stroke-width:0.26458332"
         id="path1106" />
      <path
         d="m 102.11175,18.792687 0.36548,0.02963 c 0.4445,0.03951 0.47414,0.09878 0.47414,0.968022 v 4.425245 c 0,0.335844 -0.0494,0.484011 -0.19756,0.563033 l -0.31609,0.1778 v 0.227189 c 0.41487,-0.01976 0.82973,-0.02963 1.2446,-0.02963 0.46426,0 0.93839,0.0099 1.40265,0.02963 1.28411,0 2.67687,-0.889 2.67687,-2.163234 0,-0.523522 -0.19755,-0.958144 -0.54327,-1.205089 -0.3556,-0.246944 -0.69145,-0.335844 -1.48167,-0.385233 0.82973,-0.296333 1.11619,-0.434622 1.4224,-0.721078 0.23707,-0.217311 0.37535,-0.572911 0.37535,-0.948266 0,-0.898878 -0.6223,-1.3335 -1.8669,-1.3335 -0.63217,0 -1.26435,0.02963 -1.89653,0.02963 -0.55315,0 -1.10631,-0.0099 -1.65947,-0.02963 z m 2.23238,5.808134 V 21.71651 h 0.29634 c 1.14582,0 1.63971,0.434622 1.63971,1.442155 0,1.027289 -0.46426,1.481667 -1.5113,1.481667 -0.14817,0 -0.25683,-0.0099 -0.42475,-0.03951 z m 0,-3.397956 V 18.96061 c 0.23707,-0.02963 0.38524,-0.03951 0.57291,-0.03951 0.8001,0 1.1557,0.325967 1.1557,1.056923 0,0.859366 -0.43462,1.224844 -1.43227,1.224844 z"
         style="font-style:normal;font-variant:normal;font-weight:bold;font-stretch:normal;font-family:'TeX Gyre Pagella';-inkscape-font-specification:'TeX Gyre Pagella Bold';stroke-width:0.26458332"
         id="path1108" />
      <path
         d="m 108.73943,22.921599 c 0,1.570566 0.78035,2.4003 2.26201,2.4003 0.57291,0 0.91864,-0.09878 1.56069,-0.424745 l 0.21731,-0.474133 -0.11853,-0.148167 c -0.46426,0.256822 -0.76059,0.345722 -1.16558,0.345722 -0.49389,0 -0.9779,-0.2667 -1.22484,-0.681566 -0.16792,-0.276578 -0.22719,-0.513645 -0.24695,-0.987778 h 1.29399 c 0.56304,0 0.99766,-0.05927 1.56069,-0.197556 v -0.513644 c 0,-1.056922 -0.73095,-1.738489 -1.87678,-1.738489 -0.33584,0 -0.59266,0.06914 -0.85936,0.227189 l -0.46426,0.276578 c -0.65193,0.385233 -0.93839,0.968022 -0.93839,1.916289 z m 1.22485,-0.493889 c 0,-0.9779 0.2667,-1.373011 0.83961,-1.373011 0.56303,0 0.81985,0.395111 0.81985,1.373011 0,0 -0.50376,0.02963 -0.82973,0.02963 -0.19756,0 0.0494,0 -0.51364,-0.01976 z"
         style="font-style:normal;font-variant:normal;font-weight:bold;font-stretch:normal;font-family:'TeX Gyre Pagella';-inkscape-font-specification:'TeX Gyre Pagella Bold';stroke-width:0.26458332"
         id="path1110" />
      <path
         d="m 113.5598,25.18361 c 0.42474,-0.01976 0.84948,-0.02963 1.27423,-0.02963 0.49389,0 0.99765,0.0099 1.49154,0.02963 v -0.365478 l -0.38523,-0.01976 c -0.42474,-0.01975 -0.47413,-0.07902 -0.47413,-0.632177 v -1.9558 c 0,-0.306212 0.40499,-0.632178 0.79022,-0.632178 0.24694,0 0.42474,0.118533 0.56303,0.3556 l 0.23707,-0.09878 0.0494,-1.274233 c -0.0988,-0.03951 -0.22719,-0.05927 -0.36548,-0.05927 -0.27658,0 -0.46426,0.118533 -0.83961,0.523522 l -0.43462,0.474134 V 20.56081 l -0.0988,-0.05927 -0.69145,0.217311 c -0.31608,0.09878 -0.49388,0.128411 -1.11618,0.207433 v 0.3556 l 0.4445,0.02963 c 0.22718,0.01975 0.25682,0.108655 0.25682,0.691444 v 2.163234 c 0,0.5334 -0.0494,0.612422 -0.3556,0.632177 l -0.34572,0.01976 z"
         style="font-style:normal;font-variant:normal;font-weight:bold;font-stretch:normal;font-family:'TeX Gyre Pagella';-inkscape-font-specification:'TeX Gyre Pagella Bold';stroke-width:0.26458332"
         id="path1112" />
      <path
         d="m 117.59054,25.18361 c 0.42474,-0.01976 0.84949,-0.02963 1.27423,-0.02963 0.4445,0 0.889,0.0099 1.3335,0.02963 v -0.365478 l -0.34572,-0.01976 c -0.30621,-0.01975 -0.3556,-0.09878 -0.3556,-0.632177 v -2.143478 c 0,-0.345722 0.40499,-0.671689 0.83961,-0.671689 0.65194,0 0.92851,0.345722 0.92851,1.135944 v 2.696634 c 0.29634,-0.01976 0.59267,-0.02963 0.889,-0.02963 0.33585,0 0.66181,0.0099 0.99766,0.02963 v -0.365478 l -0.32597,-0.01976 c -0.30621,-0.01975 -0.3556,-0.09878 -0.3556,-0.632177 v -1.837267 c 0,-0.760589 -0.0889,-1.135945 -0.34572,-1.412522 -0.25682,-0.2667 -0.66181,-0.414867 -1.14582,-0.414867 -0.29634,0 -0.5334,0.05927 -0.69145,0.187678 l -0.79022,0.612422 V 20.56081 l -0.0593,-0.05927 c -1.02728,0.335844 -1.30386,0.395111 -1.84714,0.424744 v 0.3556 l 0.4445,0.02963 c 0.22719,0.01975 0.25682,0.108655 0.25682,0.691444 v 2.163234 c 0,0.5334 -0.0494,0.612422 -0.3556,0.632177 l -0.34572,0.01976 z"
         style="font-style:normal;font-variant:normal;font-weight:bold;font-stretch:normal;font-family:'TeX Gyre Pagella';-inkscape-font-specification:'TeX Gyre Pagella Bold';stroke-width:0.26458332"
         id="path1114" />
      <path
         d="m 123.77727,25.045321 c 0.57291,0.197555 1.00754,0.276578 1.53106,0.276578 1.2446,0 2.08421,-0.681567 2.08421,-1.698978 0,-0.7112 -0.36548,-1.076678 -1.25448,-1.274234 l -0.80998,-0.1778 c -0.38523,-0.0889 -0.54327,-0.237066 -0.54327,-0.553155 0,-0.395111 0.32596,-0.642056 0.86924,-0.642056 0.40499,0 0.82973,0.187678 0.85937,0.385234 l 0.0988,0.572911 h 0.3556 l 0.079,-1.205089 c -0.38524,-0.167922 -0.69145,-0.227189 -1.21497,-0.227189 -1.3335,0 -2.05458,0.5334 -2.05458,1.521178 0,0.651933 0.3556,1.0668 1.04705,1.234722 l 0.84949,0.207433 c 0.45437,0.108656 0.6223,0.276578 0.6223,0.6223 0,0.464256 -0.34573,0.760589 -0.90876,0.760589 -0.46425,0 -0.8001,-0.148166 -1.10631,-0.513644 l -0.0494,-0.681567 h -0.38523 z"
         style="font-style:normal;font-variant:normal;font-weight:bold;font-stretch:normal;font-family:'TeX Gyre Pagella';-inkscape-font-specification:'TeX Gyre Pagella Bold';stroke-width:0.26458332"
         id="path1116" />
      <path
         d="m 127.98875,21.548587 0.63218,-0.03951 v 2.558345 c 0,0.879122 0.36548,1.254478 1.22485,1.254478 0.30621,0 0.55315,-0.06914 0.64205,-0.1778 l 0.48401,-0.582789 -0.079,-0.187678 c -0.20743,0.09878 -0.29633,0.128411 -0.45438,0.128411 -0.46425,0 -0.61242,-0.158044 -0.61242,-0.642055 v -2.350912 h 1.04704 l 0.079,-0.642055 c -0.37536,0.03951 -0.75071,0.05927 -1.12607,0.05927 v -0.572911 c 0,-0.523522 0.0296,-0.849489 0.11853,-1.343378 l -0.13829,-0.09878 c -0.39511,0.187677 -0.70132,0.306211 -1.20508,0.493889 0.0296,0.523522 0.0395,0.701322 0.0395,0.908755 v 0.592667 l -0.65194,0.424744 z"
         style="font-style:normal;font-variant:normal;font-weight:bold;font-stretch:normal;font-family:'TeX Gyre Pagella';-inkscape-font-specification:'TeX Gyre Pagella Bold';stroke-width:0.26458332"
         id="path1118" />
      <path
         d="m 131.48534,22.921599 c 0,1.570566 0.78034,2.4003 2.26201,2.4003 0.57291,0 0.91863,-0.09878 1.56069,-0.424745 l 0.21731,-0.474133 -0.11854,-0.148167 c -0.46425,0.256822 -0.76059,0.345722 -1.16557,0.345722 -0.49389,0 -0.9779,-0.2667 -1.22485,-0.681566 -0.16792,-0.276578 -0.22719,-0.513645 -0.24694,-0.987778 h 1.29399 c 0.56303,0 0.99765,-0.05927 1.56068,-0.197556 v -0.513644 c 0,-1.056922 -0.73095,-1.738489 -1.87677,-1.738489 -0.33585,0 -0.59267,0.06914 -0.85937,0.227189 l -0.46426,0.276578 c -0.65193,0.385233 -0.93838,0.968022 -0.93838,1.916289 z m 1.22484,-0.493889 c 0,-0.9779 0.2667,-1.373011 0.83961,-1.373011 0.56303,0 0.81986,0.395111 0.81986,1.373011 0,0 -0.50377,0.02963 -0.82974,0.02963 -0.19755,0 0.0494,0 -0.51364,-0.01976 z"
         style="font-style:normal;font-variant:normal;font-weight:bold;font-stretch:normal;font-family:'TeX Gyre Pagella';-inkscape-font-specification:'TeX Gyre Pagella Bold';stroke-width:0.26458332"
         id="path1120" />
      <path
         d="m 136.3452,25.18361 c 0.42475,-0.01976 0.84949,-0.02963 1.27424,-0.02963 0.4445,0 0.889,0.0099 1.3335,0.02963 v -0.365478 l -0.34573,-0.01976 c -0.30621,-0.01975 -0.3556,-0.09878 -0.3556,-0.632177 V 20.56081 l -0.0988,-0.05927 c 0,0 -0.41487,0.148167 -0.69145,0.217311 -0.37535,0.09878 -0.55315,0.128411 -0.96802,0.187678 l -0.14817,0.01975 v 0.3556 l 0.4445,0.02963 c 0.22719,0.01975 0.25682,0.108655 0.25682,0.691444 v 2.163234 c 0,0.5334 -0.0494,0.612422 -0.3556,0.632177 l -0.34572,0.01976 z m 0.64206,-5.9563 c 0,0.375355 0.29633,0.671689 0.66181,0.671689 0.36548,0 0.66181,-0.296334 0.66181,-0.661812 0,-0.3556 -0.29633,-0.661811 -0.65193,-0.661811 -0.37536,0 -0.67169,0.296334 -0.67169,0.651934 z"
         style="font-style:normal;font-variant:normal;font-weight:bold;font-stretch:normal;font-family:'TeX Gyre Pagella';-inkscape-font-specification:'TeX Gyre Pagella Bold';stroke-width:0.26458332"
         id="path1122" />
      <path
         d="m 139.54545,25.18361 c 0.42475,-0.01976 0.84949,-0.02963 1.27423,-0.02963 0.4445,0 0.889,0.0099 1.3335,0.02963 v -0.365478 l -0.34572,-0.01976 c -0.30621,-0.01975 -0.3556,-0.09878 -0.3556,-0.632177 v -2.143478 c 0,-0.345722 0.40499,-0.671689 0.83961,-0.671689 0.65194,0 0.92851,0.345722 0.92851,1.135944 v 2.696634 c 0.29634,-0.01976 0.59267,-0.02963 0.889,-0.02963 0.33585,0 0.66182,0.0099 0.99766,0.02963 v -0.365478 l -0.32597,-0.01976 c -0.30621,-0.01975 -0.3556,-0.09878 -0.3556,-0.632177 v -1.837267 c 0,-0.760589 -0.0889,-1.135945 -0.34572,-1.412522 -0.25682,-0.2667 -0.66181,-0.414867 -1.14582,-0.414867 -0.29633,0 -0.5334,0.05927 -0.69145,0.187678 l -0.79022,0.612422 V 20.56081 l -0.0593,-0.05927 c -1.02729,0.335844 -1.30387,0.395111 -1.84715,0.424744 v 0.3556 l 0.4445,0.02963 c 0.22719,0.01975 0.25682,0.108655 0.25682,0.691444 v 2.163234 c 0,0.5334 -0.0494,0.612422 -0.3556,0.632177 l -0.34572,0.01976 z"
         style="font-style:normal;font-variant:normal;font-weight:bold;font-stretch:normal;font-family:'TeX Gyre Pagella';-inkscape-font-specification:'TeX Gyre Pagella Bold';stroke-width:0.26458332"
         id="path1124" />
      <path
         d="m 148.0337,21.548587 0.63218,-0.03951 v 2.558345 c 0,0.879122 0.36547,1.254478 1.22484,1.254478 0.30621,0 0.55316,-0.06914 0.64206,-0.1778 l 0.48401,-0.582789 -0.079,-0.187678 c -0.20744,0.09878 -0.29634,0.128411 -0.45438,0.128411 -0.46426,0 -0.61242,-0.158044 -0.61242,-0.642055 v -2.350912 h 1.04704 l 0.079,-0.642055 c -0.37535,0.03951 -0.75071,0.05927 -1.12606,0.05927 v -0.572911 c 0,-0.523522 0.0296,-0.849489 0.11853,-1.343378 l -0.13829,-0.09878 c -0.39511,0.187677 -0.70132,0.306211 -1.20509,0.493889 0.0296,0.523522 0.0395,0.701322 0.0395,0.908755 v 0.592667 l -0.65193,0.424744 z"
         style="font-style:normal;font-variant:normal;font-weight:bold;font-stretch:normal;font-family:'TeX Gyre Pagella';-inkscape-font-specification:'TeX Gyre Pagella Bold';stroke-width:0.26458332"
         id="path1126" />
      <path
         d="m 151.5454,25.18361 c 0.42475,-0.01976 0.84949,-0.02963 1.27424,-0.02963 0.4445,0 0.889,0.0099 1.3335,0.02963 v -0.365478 l -0.34572,-0.01976 c -0.30622,-0.01975 -0.3556,-0.09878 -0.3556,-0.632177 v -2.143478 c 0,-0.345722 0.40498,-0.671689 0.83961,-0.671689 0.65193,0 0.92851,0.345722 0.92851,1.145822 v 2.686756 c 0.29633,-0.01976 0.59266,-0.02963 0.889,-0.02963 0.33584,0 0.66181,0.0099 0.99765,0.02963 v -0.365478 l -0.32596,-0.01976 c -0.30621,-0.01975 -0.3556,-0.09878 -0.3556,-0.632177 v -1.837267 c 0,-0.760589 -0.0889,-1.135945 -0.34573,-1.412522 -0.25682,-0.2667 -0.66181,-0.414867 -1.14582,-0.414867 -0.29633,0 -0.5334,0.05927 -0.69144,0.187678 l -0.79022,0.612422 v -3.2004 l -0.079,-0.05927 -0.7112,0.217311 c -0.25682,0.07902 -0.58279,0.138289 -1.11619,0.207434 v 0.3556 l 0.4445,0.02963 c 0.22719,0.01976 0.25683,0.108656 0.25683,0.691445 v 4.6228 c 0,0.5334 -0.0494,0.612422 -0.3556,0.632177 l -0.34573,0.01976 z"
         style="font-style:normal;font-variant:normal;font-weight:bold;font-stretch:normal;font-family:'TeX Gyre Pagella';-inkscape-font-specification:'TeX Gyre Pagella Bold';stroke-width:0.26458332"
         id="path1128" />
      <path
         d="m 157.76176,22.921599 c 0,1.570566 0.78035,2.4003 2.26201,2.4003 0.57292,0 0.91864,-0.09878 1.56069,-0.424745 l 0.21732,-0.474133 -0.11854,-0.148167 c -0.46425,0.256822 -0.76059,0.345722 -1.16558,0.345722 -0.49389,0 -0.9779,-0.2667 -1.22484,-0.681566 -0.16792,-0.276578 -0.22719,-0.513645 -0.24695,-0.987778 h 1.29399 c 0.56304,0 0.99766,-0.05927 1.56069,-0.197556 v -0.513644 c 0,-1.056922 -0.73095,-1.738489 -1.87678,-1.738489 -0.33584,0 -0.59266,0.06914 -0.85936,0.227189 l -0.46426,0.276578 c -0.65193,0.385233 -0.93839,0.968022 -0.93839,1.916289 z m 1.22485,-0.493889 c 0,-0.9779 0.2667,-1.373011 0.83961,-1.373011 0.56303,0 0.81985,0.395111 0.81985,1.373011 0,0 -0.50376,0.02963 -0.82973,0.02963 -0.19755,0 0.0494,0 -0.51364,-0.01976 z"
         style="font-style:normal;font-variant:normal;font-weight:bold;font-stretch:normal;font-family:'TeX Gyre Pagella';-inkscape-font-specification:'TeX Gyre Pagella Bold';stroke-width:0.26458332"
         id="path1130" />
      <path
         d="m 162.6809,22.941354 c 0,1.521178 0.80997,2.380545 2.24225,2.380545 1.58045,0 2.46945,-0.898878 2.46945,-2.499078 0,-1.501422 -0.80998,-2.321278 -2.27189,-2.321278 -1.57057,0 -2.43981,0.869244 -2.43981,2.439811 z m 1.34337,-0.237067 c 0,-1.195211 0.29634,-1.728611 0.9779,-1.728611 0.7112,0 1.04705,0.701323 1.04705,2.153356 0,1.205089 -0.27658,1.718733 -0.94827,1.718733 -0.7112,0 -1.07668,-0.721077 -1.07668,-2.143478 z"
         style="font-style:normal;font-variant:normal;font-weight:bold;font-stretch:normal;font-family:'TeX Gyre Pagella';-inkscape-font-specification:'TeX Gyre Pagella Bold';stroke-width:0.26458332"
         id="path1132" />
      <path
         d="m 168.0805,25.18361 c 0.42475,-0.01976 0.84949,-0.02963 1.27423,-0.02963 0.49389,0 0.99766,0.0099 1.49155,0.02963 v -0.365478 l -0.38523,-0.01976 c -0.42475,-0.01975 -0.47414,-0.07902 -0.47414,-0.632177 v -1.9558 c 0,-0.306212 0.40499,-0.632178 0.79022,-0.632178 0.24695,0 0.42475,0.118533 0.56304,0.3556 l 0.23707,-0.09878 0.0494,-1.274233 c -0.0988,-0.03951 -0.22718,-0.05927 -0.36547,-0.05927 -0.27658,0 -0.46426,0.118533 -0.83962,0.523522 l -0.43462,0.474134 V 20.56081 l -0.0988,-0.05927 -0.69144,0.217311 c -0.31609,0.09878 -0.49389,0.128411 -1.11619,0.207433 v 0.3556 l 0.4445,0.02963 c 0.22719,0.01975 0.25682,0.108655 0.25682,0.691444 v 2.163234 c 0,0.5334 -0.0494,0.612422 -0.3556,0.632177 l -0.34572,0.01976 z"
         style="font-style:normal;font-variant:normal;font-weight:bold;font-stretch:normal;font-family:'TeX Gyre Pagella';-inkscape-font-specification:'TeX Gyre Pagella Bold';stroke-width:0.26458332"
         id="path1134" />
      <path
         d="m 172.03824,22.921599 c 0,1.570566 0.78034,2.4003 2.26201,2.4003 0.57291,0 0.91863,-0.09878 1.56069,-0.424745 l 0.21731,-0.474133 -0.11853,-0.148167 c -0.46426,0.256822 -0.76059,0.345722 -1.16558,0.345722 -0.49389,0 -0.9779,-0.2667 -1.22485,-0.681566 -0.16792,-0.276578 -0.22719,-0.513645 -0.24694,-0.987778 h 1.29399 c 0.56303,0 0.99765,-0.05927 1.56069,-0.197556 v -0.513644 c 0,-1.056922 -0.73096,-1.738489 -1.87678,-1.738489 -0.33585,0 -0.59267,0.06914 -0.85937,0.227189 l -0.46425,0.276578 c -0.65194,0.385233 -0.93839,0.968022 -0.93839,1.916289 z m 1.22484,-0.493889 c 0,-0.9779 0.2667,-1.373011 0.83961,-1.373011 0.56304,0 0.81986,0.395111 0.81986,1.373011 0,0 -0.50377,0.02963 -0.82973,0.02963 -0.19756,0 0.0494,0 -0.51365,-0.01976 z"
         style="font-style:normal;font-variant:normal;font-weight:bold;font-stretch:normal;font-family:'TeX Gyre Pagella';-inkscape-font-specification:'TeX Gyre Pagella Bold';stroke-width:0.26458332"
         id="path1136" />
      <path
         d="m 176.79934,25.18361 c 0.42475,-0.01976 0.84949,-0.02963 1.27423,-0.02963 0.41487,0 0.83962,0.0099 1.25448,0.02963 v -0.365478 l -0.2667,-0.01976 c -0.31609,-0.01975 -0.3556,-0.09878 -0.3556,-0.632177 v -2.143478 c 0,-0.325967 0.40499,-0.671689 0.8001,-0.671689 0.57291,0 0.84949,0.375355 0.84949,1.145822 v 1.669345 c 0,0.5334 -0.0395,0.612422 -0.3556,0.632177 l -0.30621,0.01976 v 0.365478 c 0.42475,-0.01976 0.84949,-0.02963 1.27423,-0.02963 0.43463,0 0.85937,0.0099 1.29399,0.02963 v -0.365478 l -0.34572,-0.01976 c -0.30621,-0.01975 -0.3556,-0.09878 -0.3556,-0.632177 v -2.143478 c 0,-0.325967 0.40499,-0.671689 0.8001,-0.671689 0.57291,0 0.84949,0.375355 0.84949,1.145822 v 2.686756 c 0.30621,-0.01976 0.61242,-0.02963 0.91863,-0.02963 0.32597,0 0.64206,0.0099 0.96803,0.02963 v -0.365478 l -0.32597,-0.01976 c -0.30621,-0.01975 -0.3556,-0.09878 -0.3556,-0.632177 v -1.837267 c 0,-1.363133 -0.3556,-1.827389 -1.41252,-1.827389 -0.32597,0 -0.54328,0.05927 -0.7112,0.187678 l -0.79023,0.612422 c -0.22718,-0.563033 -0.6223,-0.8001 -1.30386,-0.8001 -0.31609,0 -0.5334,0.05927 -0.70132,0.187678 l -0.79023,0.612422 V 20.56081 l -0.0593,-0.05927 c -1.02729,0.335844 -1.30387,0.395111 -1.84715,0.424744 v 0.3556 l 0.4445,0.02963 c 0.22719,0.01975 0.25682,0.108655 0.25682,0.691444 v 2.163234 c 0,0.5334 -0.0494,0.612422 -0.3556,0.632177 l -0.34572,0.01976 z"
         style="font-style:normal;font-variant:normal;font-weight:bold;font-stretch:normal;font-family:'TeX Gyre Pagella';-inkscape-font-specification:'TeX Gyre Pagella Bold';stroke-width:0.26458332"
         id="path1138" />
    </g>
  </g>
</svg>
