<?xml version="1.0" encoding="UTF-8" standalone="no"?>
<svg
   xmlns:dc="http://purl.org/dc/elements/1.1/"
   xmlns:cc="http://creativecommons.org/ns#"
   xmlns:rdf="http://www.w3.org/1999/02/22-rdf-syntax-ns#"
   xmlns:svg="http://www.w3.org/2000/svg"
   xmlns="http://www.w3.org/2000/svg"
   xmlns:xlink="http://www.w3.org/1999/xlink"
   xmlns:sodipodi="http://sodipodi.sourceforge.net/DTD/sodipodi-0.dtd"
   xmlns:inkscape="http://www.inkscape.org/namespaces/inkscape"
   version="1.1"
   id="svg909"
   width="303.67999"
   height="344.32001"
   viewBox="0 0 303.67999 344.32001"
   sodipodi:docname="Nefertiti.svg"
   inkscape:version="1.0.2 (e86c870879, 2021-01-15)">
  <metadata
     id="metadata915">
    <rdf:RDF>
      <cc:Work
         rdf:about="">
        <dc:format>image/svg+xml</dc:format>
        <dc:type
           rdf:resource="http://purl.org/dc/dcmitype/StillImage" />
        <dc:title />
      </cc:Work>
    </rdf:RDF>
  </metadata>
  <defs
     id="defs913">
    <inkscape:path-effect
       effect="bspline"
       id="path-effect925"
       is_visible="true"
       lpeversion="1"
       weight="33.333333"
       steps="2"
       helper_size="0"
       apply_no_weight="true"
       apply_with_weight="true"
       only_selected="false" />
  </defs>
  <sodipodi:namedview
     pagecolor="#ffffff"
     bordercolor="#666666"
     borderopacity="1"
     objecttolerance="10"
     gridtolerance="10"
     guidetolerance="10"
     inkscape:pageopacity="0"
     inkscape:pageshadow="2"
     inkscape:window-width="640"
     inkscape:window-height="480"
     id="namedview911"
     showgrid="false"
     inkscape:zoom="2.5673791"
     inkscape:cx="258.73714"
     inkscape:cy="198.59017"
     inkscape:current-layer="g917"
     inkscape:document-rotation="0" />
  <g
     inkscape:groupmode="layer"
     inkscape:label="Image"
     id="g917">
    <image
       sodipodi:absref="/home/herman/repos/bergwerf/hyperwiki/fig/logo/Nefertiti.jpg"
       xlink:href="Nefertiti.jpg"
       width="303.67999"
       height="344.32001"
       preserveAspectRatio="none"
       id="image919" />
    <path
       style="font-variation-settings:normal;opacity:1;vector-effect:none;fill:none;fill-opacity:1;stroke:#00ff00;stroke-width:0.377953;stroke-linecap:butt;stroke-linejoin:miter;stroke-miterlimit:4;stroke-dasharray:none;stroke-dashoffset:0;stroke-opacity:0.5;stop-color:#000000;stop-opacity:1"
       d="m 247.33124,197.26772 c -4.39821,-0.51487 -8.65307,-2.59414 -12.52873,-5.10597 2.96373,-0.36512 8.86382,-2.90484 11.6558,-5.06667 0.40228,-0.31148 1.41122,-0.53021 2.26692,-0.39852"
       id="path1411"
       sodipodi:nodetypes="ccsc" />
    <path
       style="font-variation-settings:normal;opacity:1;vector-effect:none;fill:none;fill-opacity:1;stroke:#00ff00;stroke-width:0.377953;stroke-linecap:butt;stroke-linejoin:miter;stroke-miterlimit:4;stroke-dasharray:none;stroke-dashoffset:0;stroke-opacity:0.5;stop-color:#000000;stop-opacity:1"
       d="m 230.85926,120.16724 c 0.8642,3.67905 2.05915,6.89304 2.92745,8.88176 0.92817,2.12585 3.49886,5.46082 4.16993,7.57173 0.9343,2.93887 1.24837,6.68657 1.49877,9.01792 0.31558,2.9382 2.41358,5.84386 3.80031,8.06212 1.43168,2.29015 2.86395,5.18965 4.74844,8.06197 2.21275,3.37265 6.03201,7.8631 6.72187,10.75277 0.21128,0.88499 0.009,1.82038 -0.45692,2.70954 -0.97831,1.86583 -3.12007,3.52809 -5.04796,4.09394 -1.26397,0.37098 -2.11503,0.71528 -1.9794,2.63627 0.13267,1.87906 0.68101,3.34219 1.48348,4.7413 -0.35104,2.38377 -0.83401,4.17891 -2.29338,4.97343 1.58642,1.72087 1.24757,3.4312 0.89939,5.59773 -0.85394,0.49838 -2.20585,0.1774 -2.35651,1.50143 -0.30892,2.71469 1.46179,4.51678 1.29725,9.41296 -0.16454,4.89619 -5.37344,7.08343 -6.96562,7.03783"
       id="path1432"
       sodipodi:nodetypes="cssssssssscccssc" />
  </g>
</svg>
